<svg xmlns="http://www.w3.org/2000/svg" viewBox="0 0 64 64" role="img" aria-labelledby="title">
  <title>MBU CampusFinder</title>
  <rect width="64" height="64" rx="10" fill="#ffcc27"/>
  <path d="M32 7c-6 8-15 10-19 8 1 8 4 14 10 18-3 3-4 7-2 12 4-2 8-5 11-9 3 4 7 7 11 9 2-5 1-9-2-12 6-4 9-10 10-18-4 2-13 0-19-8Z" fill="#c91f27"/>
  <path d="M32 15c-2 6-6 10-11 12 4 2 8 2 11 0 3 2 7 2 11 0-5-2-9-6-11-12Z" fill="#ffcc27"/>
  <text x="32" y="57" fill="#c91f27" font-family="Georgia, serif" font-size="12" font-weight="700" text-anchor="middle">MBU</text>
</svg>
